<svg xmlns="http://www.w3.org/2000/svg" viewBox="0 0 150 360">
<defs><linearGradient id="dress" x1="0" x2="1"><stop stop-color="#356b8b"/><stop offset="1" stop-color="#244f70"/></linearGradient><linearGradient id="skirt" x1="0" x2="1"><stop stop-color="#263f63"/><stop offset="1" stop-color="#172d4f"/></linearGradient><filter id="s"><feDropShadow dy="5" stdDeviation="4" flood-opacity=".25"/></filter></defs>
<ellipse cx="76" cy="346" rx="50" ry="10" fill="#23383b" opacity=".25"/>
<g filter="url(#s)" stroke="#272b2d" stroke-width="3" stroke-linejoin="round">
<path d="M45 166c-12 49-17 111-21 161 26 15 76 15 103 0-6-57-10-111-23-161z" fill="url(#skirt)"/>
<path d="M42 115c-10 22-9 56 5 72 17 8 40 8 57 0 14-21 14-51 2-72-18-9-47-9-64 0z" fill="url(#dress)"/>
<path d="M44 124c-15 20-20 48-18 75 1 14 14 14 17 0l6-49M106 124c15 20 20 48 18 75-1 14-14 14-17 0l-6-49" fill="none" stroke="#356b8b" stroke-width="13" stroke-linecap="round"/>
<path d="M61 327l-3 18h22l2-18M89 327l2 18h23l-4-18" fill="#6a4930"/>
<circle cx="75" cy="70" r="43" fill="#e2aa83"/>
<path d="M35 70c0-37 18-56 43-56 27 0 44 21 40 57-7-17-21-26-42-26-20 0-32 8-41 25z" fill="#4b2e20"/>
<path d="M37 46c15-33 60-43 83-4l-7 18c-18-13-50-19-74 1z" fill="#274e75"/>
<path d="M39 41c16-18 58-23 77 0" fill="none" stroke="#c28749" stroke-width="5" stroke-dasharray="5 7"/>
<path d="M37 55c-7 21-6 62 7 86M115 54c7 22 7 64-6 88" fill="none" stroke="#4b2e20" stroke-width="10" stroke-linecap="round"/>
<ellipse cx="59" cy="72" rx="5" ry="6" fill="#241f1b" stroke="none"/><ellipse cx="91" cy="72" rx="5" ry="6" fill="#241f1b" stroke="none"/>
<path d="M65 91c7 6 14 6 21 0" fill="none" stroke="#a15449" stroke-width="3" stroke-linecap="round"/>
<path d="M50 59c6-4 12-4 18 0M84 59c6-4 12-4 18 0" fill="none" stroke="#4a2d20" stroke-width="4" stroke-linecap="round"/>
<path d="M65 112l10 15 10-15" fill="none" stroke="#d8ad57" stroke-width="3"/><circle cx="75" cy="129" r="5" fill="#d8ad57"/>
<path d="M48 185c17 8 38 8 56 0" fill="none" stroke="#173a5a" stroke-width="5"/>
<path d="M76 189v137" stroke="#d5a44e" stroke-width="3" stroke-dasharray="3 16"/>
</g></svg>