<svg xmlns="http://www.w3.org/2000/svg" viewBox="0 0 140 330">
<defs><linearGradient id="shirt" x1="0" x2="1"><stop stop-color="#8d918b"/><stop offset="1" stop-color="#686d69"/></linearGradient><linearGradient id="pants" x1="0" x2="1"><stop stop-color="#b58b4f"/><stop offset="1" stop-color="#8f6a38"/></linearGradient><filter id="s"><feDropShadow dy="5" stdDeviation="4" flood-opacity=".25"/></filter></defs>
<ellipse cx="70" cy="316" rx="48" ry="10" fill="#23383b" opacity=".25"/>
<g filter="url(#s)" stroke="#2a2b29" stroke-width="3" stroke-linejoin="round">
<path d="M48 189l-9 99 26 1 5-83 5 83 27-1-11-99z" fill="url(#pants)"/>
<path d="M41 285l-8 21 37 3 2-20zM99 285l8 21-38 3-1-20z" fill="#4f3927"/>
<path d="M38 101c-14 22-13 74 0 96 18 9 47 9 65 0 11-28 12-74-3-96-16-10-47-10-62 0z" fill="url(#shirt)"/>
<path d="M39 111c-17 20-24 50-22 77 2 15 15 13 18 0l7-54M100 111c18 19 23 49 20 77-2 15-15 13-18 0l-7-54" fill="none" stroke="#6f746f" stroke-width="14" stroke-linecap="round"/>
<circle cx="70" cy="65" r="45" fill="#d99a6b"/>
<path d="M31 55c5-35 24-50 48-43 20 1 33 18 32 42-7-18-20-25-41-24-17 0-29 8-39 25z" fill="#181817"/>
<g fill="#181817" stroke="none"><circle cx="41" cy="30" r="10"/><circle cx="53" cy="21" r="11"/><circle cx="67" cy="18" r="11"/><circle cx="82" cy="19" r="11"/><circle cx="96" cy="27" r="11"/><circle cx="104" cy="39" r="10"/></g>
<ellipse cx="70" cy="20" rx="27" ry="10" fill="#284b74"/>
<path d="M42 78c4 28 17 40 29 40 13 0 25-14 29-41-8 11-17 16-29 16-12 0-21-5-29-15z" fill="#35261d"/>
<ellipse cx="53" cy="60" rx="4" ry="5" fill="#201d18" stroke="none"/><ellipse cx="87" cy="60" rx="4" ry="5" fill="#201d18" stroke="none"/>
<path d="M61 78c6 5 13 5 19 0" fill="none" stroke="#7d3f32" stroke-width="3" stroke-linecap="round"/>
<path d="M55 49c7-5 14-5 20 0M82 49c5-4 10-4 15 0" fill="none" stroke="#171716" stroke-width="4" stroke-linecap="round"/>
<path d="M58 105l12 13 12-13" fill="none" stroke="#d8d1c2" stroke-width="3"/>
<path d="M44 150c8 3 14 9 17 17M96 150c-8 3-14 9-17 17" fill="none" stroke="#555a56" stroke-width="4"/>
</g></svg>