<svg xmlns="http://www.w3.org/2000/svg" viewBox="0 0 1280 720"><defs><radialGradient id="c" cx="50%" cy="45%"><stop stop-color="#f0b85f"/><stop offset=".35" stop-color="#80603f"/><stop offset="1" stop-color="#142935"/></radialGradient><filter id="glow"><feGaussianBlur stdDeviation="12" result="b"/><feMerge><feMergeNode in="b"/><feMergeNode in="SourceGraphic"/></feMerge></filter></defs><rect width="1280" height="720" fill="url(#c)"/><rect y="520" width="1280" height="200" fill="#4a372d"/><g opacity=".35" fill="#ecd5aa"><circle cx="140" cy="270" r="55"/><circle cx="270" cy="290" r="45"/><circle cx="1010" cy="278" r="55"/><circle cx="1145" cy="300" r="43"/></g><g transform="translate(460 280)"><ellipse cx="180" cy="250" rx="310" ry="55" fill="#1a1a1a" opacity=".28"/><rect width="360" height="170" rx="28" fill="#73503a"/><rect x="165" y="-80" width="30" height="110" fill="#efe4bf"/><path d="M180-95c-40-42 8-72 0-108 45 39 40 76 0 108z" fill="#f5d26e" filter="url(#glow)"/><path d="M145-80c-20-28-4-53 10-72 20 29 23 51 0 72z" fill="#d88b48" filter="url(#glow)"/><path d="M215-80c-20-28-4-53 10-72 20 29 23 51 0 72z" fill="#d88b48" filter="url(#glow)"/><g transform="translate(250 45)"><path d="M0 55c13-42 67-45 82-6 9 24-5 57-33 62-27 5-57-18-49-56z" fill="#f5f1df"/><ellipse cx="22" cy="20" rx="12" ry="30" fill="#f5f1df" transform="rotate(-22 22 20)"/><ellipse cx="62" cy="18" rx="12" ry="31" fill="#f5f1df" transform="rotate(23 62 18)"/><circle cx="28" cy="58" r="4" fill="#263943"/><circle cx="58" cy="58" r="4" fill="#263943"/></g></g><text x="640" y="92" text-anchor="middle" font-family="Georgia" font-size="48" fill="#f6e4b5">THE FIRST TIME WE TRULY SPOKE</text><text x="640" y="145" text-anchor="middle" font-family="Arial" font-size="26" fill="#f4e9d6">A rabbit appeared during Havdalah.</text></svg>