<svg xmlns="http://www.w3.org/2000/svg" viewBox="0 0 1280 720"><defs><linearGradient id="wall" x1="0" x2="1"><stop stop-color="#173f50"/><stop offset=".5" stop-color="#285c67"/><stop offset="1" stop-color="#163a47"/></linearGradient><pattern id="tile" width="90" height="90" patternUnits="userSpaceOnUse"><rect width="90" height="90" fill="#e9d8b3"/><path d="M45 4L86 45 45 86 4 45z" fill="none" stroke="#2a6f78" stroke-width="7"/><circle cx="45" cy="45" r="12" fill="#bd724f"/></pattern><filter id="s"><feDropShadow dy="10" stdDeviation="10" flood-opacity=".28"/></filter></defs><rect width="1280" height="720" fill="url(#wall)"/><rect y="520" width="1280" height="200" fill="#755742"/><rect x="50" y="60" width="510" height="365" rx="24" fill="url(#tile)" filter="url(#s)"/><g transform="translate(650 48)" filter="url(#s)"><rect width="550" height="230" rx="24" fill="#f1e3c5"/><text x="30" y="48" font-family="Georgia" font-size="29" fill="#203f46">FOUR CITIES, FOUR CLOCKS</text><g transform="translate(65 80)"><circle cx="40" cy="40" r="38" fill="#fff8e7" stroke="#b96f50" stroke-width="6"/><path d="M40 40V16M40 40l18 12" stroke="#203f46" stroke-width="6"/><text x="7" y="102" font-family="Arial" font-size="17">PARIS</text></g><g transform="translate(185 80)"><circle cx="40" cy="40" r="38" fill="#fff8e7" stroke="#b96f50" stroke-width="6"/><path d="M40 40V12M40 40l25 0" stroke="#203f46" stroke-width="6"/><text x="0" y="102" font-family="Arial" font-size="17">ISTANBUL</text></g><g transform="translate(325 80)"><circle cx="40" cy="40" r="38" fill="#fff8e7" stroke="#b96f50" stroke-width="6"/><path d="M40 40V20M40 40l-20 15" stroke="#203f46" stroke-width="6"/><text x="8" y="102" font-family="Arial" font-size="17">MUSCAT</text></g><g transform="translate(445 80)"><circle cx="40" cy="40" r="38" fill="#fff8e7" stroke="#b96f50" stroke-width="6"/><path d="M40 40V10M40 40l-24-6" stroke="#203f46" stroke-width="6"/><text x="5" y="102" font-family="Arial" font-size="17">MUMBAI</text></g></g><g transform="translate(620 390)" filter="url(#s)"><ellipse cx="290" cy="100" rx="285" ry="78" fill="#28383b"/><ellipse cx="290" cy="90" rx="245" ry="48" fill="#d9c49f"/><rect x="35" y="80" width="510" height="70" rx="24" fill="#364f52"/><g fill="#77533d"><rect x="80" y="58" width="100" height="60" rx="12"/><rect x="220" y="58" width="100" height="60" rx="12"/><rect x="360" y="58" width="100" height="60" rx="12"/></g></g></svg>