<svg xmlns="http://www.w3.org/2000/svg" viewBox="0 0 1280 720"><defs><linearGradient id="g" x1="0" y1="0" x2="0" y2="1"><stop stop-color="#f0c66a"/><stop offset="1" stop-color="#c96c54"/></linearGradient><filter id="s"><feDropShadow dy="10" stdDeviation="10" flood-opacity=".24"/></filter></defs><rect width="1280" height="720" fill="#efd8b0"/><rect y="515" width="1280" height="205" fill="#887060"/><rect x="0" y="0" width="1280" height="220" fill="url(#g)"/><g opacity=".5" fill="#f4e0b9"><path d="M0 160h1280v22H0z"/><circle cx="125" cy="92" r="42"/><circle cx="1155" cy="92" r="42"/></g><g filter="url(#s)"><rect x="60" y="265" width="500" height="230" rx="30" fill="#f8ecd4" stroke="#244c50" stroke-width="8"/><text x="95" y="315" font-family="Georgia" font-size="34" fill="#244c50">LEAH — ARRIVALS A</text><path d="M120 390h340" stroke="#c16b50" stroke-width="10"/><path d="M425 360l45 30-45 30" fill="none" stroke="#c16b50" stroke-width="10"/></g><g filter="url(#s)"><rect x="720" y="265" width="500" height="230" rx="30" fill="#f8ecd4" stroke="#244c50" stroke-width="8"/><text x="755" y="315" font-family="Georgia" font-size="34" fill="#244c50">MOSHÉ — ARRIVALS B</text><path d="M1120 390H780" stroke="#c16b50" stroke-width="10"/><path d="M815 360l-45 30 45 30" fill="none" stroke="#c16b50" stroke-width="10"/></g><g transform="translate(515 70)" filter="url(#s)"><rect width="250" height="190" rx="30" fill="#1d4a50"/><path d="M125 35c-55 15-80 62-54 109 13 24 34 34 54 34s41-10 54-34c26-47 1-94-54-109z" fill="#f1d185"/><path d="M86 94l25-32 18 35 30-23-5 43-26 23-32-10z" fill="none" stroke="#b75d49" stroke-width="8"/><path d="M177 130c23-27 55-5 42 17-12 22-43 18-53 4" fill="#f3ead7"/></g><g transform="translate(480 530)"><rect width="320" height="120" rx="26" fill="#2a4f51"/><text x="44" y="48" font-family="Georgia" font-size="30" fill="#f5d58a">WHERE IS SHARON?</text><text x="42" y="88" font-family="Arial" font-size="22" fill="#f7ecdc">Follow the white rabbit.</text></g></svg>