<svg xmlns="http://www.w3.org/2000/svg" viewBox="0 0 1280 720"><defs><radialGradient id="n" cx="50%" cy="0"><stop stop-color="#203c55"/><stop offset="1" stop-color="#091a2a"/></radialGradient><filter id="glow"><feGaussianBlur stdDeviation="6" result="b"/><feMerge><feMergeNode in="b"/><feMergeNode in="SourceGraphic"/></feMerge></filter></defs><rect width="1280" height="720" fill="url(#n)"/><rect y="520" width="1280" height="200" fill="#263641"/><path d="M0 520h1280" stroke="#ba8c52" stroke-width="8"/><g fill="#f0cc78" filter="url(#glow)"><circle cx="120" cy="92" r="5"/><circle cx="240" cy="150" r="6"/><circle cx="370" cy="72" r="4"/><circle cx="510" cy="165" r="7"/><circle cx="660" cy="84" r="5"/><circle cx="815" cy="155" r="6"/><circle cx="970" cy="74" r="5"/><circle cx="1120" cy="145" r="6"/></g><g stroke="#d3a95f" stroke-width="3" opacity=".55"><path d="M120 92l120 58 130-78 140 93 150-81 155 71 155-81 150 71"/></g><g transform="translate(80 250)"><rect width="490" height="190" rx="20" fill="#efe0c0" opacity=".94"/><text x="30" y="50" font-family="Georgia" font-size="32" fill="#223c48">MUSCAT UNDER THE STARS</text><text x="30" y="95" font-family="Arial" font-size="23" fill="#40525a">Follow the old navigation pattern.</text><path d="M45 135h400" stroke="#b56d4a" stroke-width="5" stroke-dasharray="12 10"/></g><g transform="translate(730 320)"><rect width="420" height="170" rx="26" fill="#132a37" stroke="#d2a95d" stroke-width="7"/><text x="45" y="62" font-family="Arial" font-size="32" fill="#f3d582">GATE ?</text><text x="45" y="110" font-family="monospace" font-size="28" fill="#b7cbd3">MUMBAI  ———</text></g><g transform="translate(1080 70)" opacity=".82"><path d="M0 50c30-46 74-32 80 8-2 34-30 54-58 44C-2 94-12 70 0 50z" fill="#efe0c0"/><path d="M18 56l16-20 12 22 20-14-3 27-17 13-19-6z" fill="none" stroke="#a56c47" stroke-width="5"/></g></svg>