<svg xmlns="http://www.w3.org/2000/svg" viewBox="0 0 1280 720">
  <defs><linearGradient id="sky" x1="0" y1="0" x2="0" y2="1"><stop stop-color="#96bad1"/><stop offset="1" stop-color="#f1c9a3"/></linearGradient><linearGradient id="wall" x1="0" x2="1"><stop stop-color="#f1dfbe"/><stop offset="1" stop-color="#e7c99f"/></linearGradient><filter id="shadow"><feDropShadow dx="0" dy="12" stdDeviation="12" flood-opacity=".2"/></filter></defs>
  <rect width="1280" height="720" fill="url(#wall)"/><rect y="530" width="1280" height="190" fill="#8d5b43"/><path d="M0 530h1280" stroke="#6b4030" stroke-width="8"/>
  <g opacity=".25" stroke="#5f3e2d" stroke-width="3"><path d="M0 575h1280M0 635h1280M130 530v190M340 530v190M575 530v190M820 530v190M1050 530v190"/></g>
  <g filter="url(#shadow)"><rect x="770" y="55" width="410" height="380" rx="190" fill="#f8ecd5" stroke="#113f49" stroke-width="14"/><path d="M792 80h366v330H792z" fill="url(#sky)"/><path d="M958 126l-28 218h58z" fill="#283f48" opacity=".8"/><path d="M905 344h110M922 296h76M935 244h50" stroke="#283f48" stroke-width="8"/><path d="M792 358c105-46 232-50 366-9v61H792z" fill="#667b61"/><path d="M976 75v340M792 250h366" stroke="#f7ead0" stroke-width="12"/></g>
  <rect x="70" y="68" width="420" height="238" rx="20" fill="#f7eddc" stroke="#244b47" stroke-width="8" filter="url(#shadow)"/><path d="M105 238c70-120 150-75 220-145 70 40 90 105 130 122" fill="none" stroke="#c67656" stroke-width="10" stroke-linecap="round"/><g fill="#244b47"><circle cx="115" cy="242" r="8"/><circle cx="215" cy="157" r="8"/><circle cx="325" cy="93" r="8"/><circle cx="450" cy="218" r="8"/></g><text x="100" y="108" font-family="Georgia" font-size="31" fill="#244b47">THE LONG WAY EAST</text>
  <g filter="url(#shadow)"><rect x="385" y="400" width="510" height="72" rx="18" fill="#704937"/><rect x="430" y="458" width="35" height="160" fill="#704937"/><rect x="815" y="458" width="35" height="160" fill="#704937"/><rect x="460" y="350" width="320" height="118" rx="10" fill="#d7ad73" transform="rotate(-2 620 409)"/><path d="M480 370h280v80H480z" fill="#f8efd9" stroke="#c28a55" stroke-width="4"/><path d="M480 370l140 52 140-52" fill="none" stroke="#c28a55" stroke-width="4"/><circle cx="620" cy="417" r="20" fill="#b65542"/><path d="M610 417l9 9 16-20" fill="none" stroke="#f9e9c8" stroke-width="4"/></g>
  <g transform="translate(65 410)" filter="url(#shadow)"><rect width="270" height="180" rx="28" fill="#496254" stroke="#263d35" stroke-width="8"/><rect x="68" y="-26" width="130" height="48" rx="20" fill="none" stroke="#263d35" stroke-width="12"/><path d="M135 0v180" stroke="#263d35" stroke-width="5" opacity=".45"/><circle cx="135" cy="88" r="13" fill="#c89b43"/></g>
  <g transform="translate(1030 410)"><ellipse cx="90" cy="160" rx="105" ry="28" fill="#000" opacity=".16"/><rect x="45" y="80" width="90" height="90" rx="14" fill="#b76d4f"/><path d="M88 85C30 50 50 6 92 60C122 4 168 38 96 102" fill="#587459" stroke="#31503a" stroke-width="7"/></g>
  <g transform="translate(990 120)" opacity=".9"><path d="M0 48c31-53 84-35 88 12-8 38-45 59-75 37-22-16-23-34-13-49z" fill="#f6f0df" stroke="#c79b45" stroke-width="6"/><path d="M24 55l14-19 13 20 20-15-2 29-16 15-22-5z" fill="none" stroke="#174f47" stroke-width="6"/></g>
</svg>