<svg xmlns="http://www.w3.org/2000/svg" viewBox="0 0 1280 720"><defs><linearGradient id="g" x1="0" y1="0" x2="0" y2="1"><stop stop-color="#c9e0e6"/><stop offset="1" stop-color="#f4d6ae"/></linearGradient><filter id="s"><feDropShadow dy="10" stdDeviation="10" flood-opacity=".22"/></filter></defs><rect width="1280" height="720" fill="#e7dfcf"/><rect y="535" width="1280" height="185" fill="#718086"/><path d="M0 540h1280" stroke="#203d43" stroke-width="12"/><rect x="0" y="0" width="1280" height="385" fill="url(#g)"/><g stroke="#e9f0ef" stroke-width="14"><path d="M0 0v385M260 0v385M520 0v385M780 0v385M1040 0v385M1280 0v385M0 195h1280"/></g><g fill="#35525a" opacity=".65"><path d="M90 310h210l-30 42H130z"/><path d="M900 280h220l-60 55H960z"/></g><g filter="url(#s)"><rect x="80" y="55" width="520" height="250" rx="18" fill="#193d43"/><text x="115" y="105" font-family="Arial" font-size="32" fill="#f6d47c">DEPARTURES / DÉPARTS</text><g font-family="monospace" font-size="29" fill="#f4efe3"><text x="115" y="155">09:10 ISTANBUL  GATE B12</text><text x="115" y="200">10:05 ISTANBUL  GATE C07</text><text x="115" y="245">10:40 DIRECT MUMBAI  CANCELLED</text></g></g><g transform="translate(820 390)" filter="url(#s)"><rect width="330" height="140" rx="20" fill="#f1e7d3" stroke="#284a50" stroke-width="7"/><rect x="78" y="45" width="170" height="35" rx="8" fill="#192e32"/><text x="114" y="72" font-family="monospace" font-size="24" fill="#e8c768">--.- kg</text><path d="M165 80v46" stroke="#284a50" stroke-width="8"/></g><g transform="translate(100 430)" filter="url(#s)"><rect width="530" height="90" rx="24" fill="#cab07d"/><rect x="30" y="25" width="105" height="45" rx="12" fill="#344f48"/><rect x="170" y="25" width="105" height="45" rx="12" fill="#a2614c"/><rect x="310" y="25" width="105" height="45" rx="12" fill="#344f48"/></g><g transform="translate(655 120)"><circle cx="80" cy="80" r="72" fill="#f8f0df" stroke="#bf9144" stroke-width="8"/><path d="M80 25v55l38 22" stroke="#254b52" stroke-width="9" stroke-linecap="round"/><text x="25" y="180" font-family="Georgia" font-size="26" fill="#254b52">PARIS</text></g></svg>